# xmcd
#
# Track frame offsets: 
#        150
#        23532
#        42913
#        62972
#        79385
#        97184
#        116853
#        141893
#        159162
#        178927
#        192890
#        208625
#
# Disc length: 2899 seconds
#
# Revision: 0
# Processed by: cddbd v1.5.2PL0 Copyright (c) Steve Scherf et al.
# Submitted via: ExactAudioCopy v0.99pb4
#
DISCID=aa0b510c
DTITLE=Luz del Norte - Poema
DYEAR=2011
DGENRE=Fado
TTITLE0=De los amores
TTITLE1=Estrella azul
TTITLE2=Alfonsina y el mar
TTITLE3=El choclo
TTITLE4=Con toda palabra
TTITLE5=A veces canta en milongas
TTITLE6=Luna llena
TTITLE7=De cara a la pared
TTITLE8=Poema
TTITLE9=La ronda
TTITLE10=Soy pescador
TTITLE11=Sa darrera estació
EXTD=
EXTT0=
EXTT1=
EXTT2=
EXTT3=
EXTT4=
EXTT5=
EXTT6=
EXTT7=
EXTT8=
EXTT9=
EXTT10=
EXTT11=
PLAYORDER=
